<svg fill="currentColor" role="img" viewBox="0 0 48 48" xmlns="http://www.w3.org/2000/svg">
<title>Calendar icon</title>
<path d="M37.75 9H34V4.9375C34 4.46875 33.5312 4 33.0625 4H32.4375C31.8906 4 31.5 4.46875 31.5 4.9375V9H16.5V4.9375C16.5 4.46875 16.0312 4 15.5625 4H14.9375C14.3906 4 14 4.46875 14 4.9375V9H10.25C8.14062 9 6.5 10.7187 6.5 12.75V40.25C6.5 42.3594 8.14062 44 10.25 44H37.75C39.7812 44 41.5 42.3594 41.5 40.25V12.75C41.5 10.7187 39.7812 9 37.75 9ZM10.25 11.5H37.75C38.375 11.5 39 12.125 39 12.75V16.5H9V12.75C9 12.125 9.54687 11.5 10.25 11.5ZM37.75 41.5H10.25C9.54687 41.5 9 40.9531 9 40.25V19H39V40.25C39 40.9531 38.375 41.5 37.75 41.5ZM18.0625 29C18.5312 29 19 28.6094 19 28.0625V24.9375C19 24.4687 18.5312 24 18.0625 24H14.9375C14.3906 24 14 24.4687 14 24.9375V28.0625C14 28.6094 14.3906 29 14.9375 29H18.0625ZM25.5625 29C26.0312 29 26.5 28.6094 26.5 28.0625V24.9375C26.5 24.4687 26.0312 24 25.5625 24H22.4375C21.8906 24 21.5 24.4687 21.5 24.9375V28.0625C21.5 28.6094 21.8906 29 22.4375 29H25.5625ZM33.0625 29C33.5312 29 34 28.6094 34 28.0625V24.9375C34 24.4687 33.5312 24 33.0625 24H29.9375C29.3906 24 29 24.4687 29 24.9375V28.0625C29 28.6094 29.3906 29 29.9375 29H33.0625ZM25.5625 36.5C26.0312 36.5 26.5 36.1094 26.5 35.5625V32.4375C26.5 31.9687 26.0312 31.5 25.5625 31.5H22.4375C21.8906 31.5 21.5 31.9687 21.5 32.4375V35.5625C21.5 36.1094 21.8906 36.5 22.4375 36.5H25.5625ZM18.0625 36.5C18.5312 36.5 19 36.1094 19 35.5625V32.4375C19 31.9687 18.5312 31.5 18.0625 31.5H14.9375C14.3906 31.5 14 31.9687 14 32.4375V35.5625C14 36.1094 14.3906 36.5 14.9375 36.5H18.0625ZM33.0625 36.5C33.5312 36.5 34 36.1094 34 35.5625V32.4375C34 31.9687 33.5312 31.5 33.0625 31.5H29.9375C29.3906 31.5 29 31.9687 29 32.4375V35.5625C29 36.1094 29.3906 36.5 29.9375 36.5H33.0625Z"/>
</svg>
