<svg fill="currentColor" role="img" viewBox="0 0 48 48" xmlns="http://www.w3.org/2000/svg">
<title>Check/Tick icon</title>
<path d="M24 4C12.9516 4 4 13.0323 4 24C4 35.0484 12.9516 44 24 44C34.9677 44 44 35.0484 44 24C44 13.0323 34.9677 4 24 4ZM24 41.4194C14.4032 41.4194 6.58065 33.6774 6.58065 24C6.58065 14.4839 14.3226 6.58065 24 6.58065C33.5161 6.58065 41.4194 14.4032 41.4194 24C41.4194 33.5968 33.5968 41.4194 24 41.4194ZM35.371 19.3226C35.7742 18.9194 35.7742 18.2742 35.371 17.9516L34.7258 17.2258C34.3226 16.8226 33.6774 16.8226 33.3548 17.2258L20.129 30.2903L14.5645 24.7258C14.2419 24.3226 13.5968 24.3226 13.1935 24.7258L12.5484 25.371C12.1452 25.7742 12.1452 26.3387 12.5484 26.7419L19.4839 33.7581C19.8065 34.0806 20.4516 34.0806 20.8548 33.7581L35.371 19.3226Z"/>
</svg>
