<svg fill="currentColor" role="img" viewBox="0 0 48 48" xmlns="http://www.w3.org/2000/svg">
<title>Comment icon</title>
<path d="M39 4H9C6.1875 4 4 6.26562 4 9V31.5C4 34.3125 6.1875 36.5 9 36.5H16.5V43.0625C16.5 43.6875 16.8906 44 17.4375 44C17.5938 44 17.75 44 17.9844 43.8438L27.75 36.5H39C41.7344 36.5 44 34.3125 44 31.5V9C44 6.26562 41.7344 4 39 4ZM41.5 31.5C41.5 32.9062 40.3281 34 39 34H26.8906L26.1875 34.5469L19 39.9375V34H9C7.59375 34 6.5 32.9062 6.5 31.5V9C6.5 7.67188 7.59375 6.5 9 6.5H39C40.3281 6.5 41.5 7.67188 41.5 9V31.5ZM29.8594 22.5938C28.4531 24.3125 26.2656 25.25 24 25.25C21.6562 25.25 19.5469 24.3125 18.0625 22.5938C17.5938 22.0469 16.8125 21.9688 16.2656 22.4375C15.7188 22.9062 15.7188 23.6875 16.1094 24.2344C18.0625 26.5 20.9531 27.75 24 27.75C26.9688 27.75 29.8594 26.5 31.8125 24.2344C32.2812 23.6875 32.2031 22.9062 31.6562 22.4375C31.1094 21.9688 30.3281 22.0469 29.8594 22.5938ZM19 18.375C20.0156 18.375 20.875 17.5938 20.875 16.5C20.875 15.4844 20.0156 14.625 19 14.625C17.9062 14.625 17.125 15.4844 17.125 16.5C17.125 17.5938 17.9062 18.375 19 18.375ZM29 18.375C30.0156 18.375 30.875 17.5938 30.875 16.5C30.875 15.4844 30.0156 14.625 29 14.625C27.9062 14.625 27.125 15.4844 27.125 16.5C27.125 17.5938 27.9062 18.375 29 18.375Z"/>
</svg>
