<svg fill="currentColor" role="img" viewBox="0 0 48 48" xmlns="http://www.w3.org/2000/svg">
<title>Blog icon</title>
<path d="M39 4H9C6.1875 4 4 6.26562 4 9V31.5C4 34.3125 6.1875 36.5 9 36.5H16.5V43.0625C16.5 43.6875 16.8906 44 17.4375 44C17.5938 44 17.75 44 17.9844 43.8438L27.75 36.5H39C41.7344 36.5 44 34.3125 44 31.5V9C44 6.26562 41.7344 4 39 4ZM41.5 31.5C41.5 32.9062 40.3281 34 39 34H26.8906L26.1875 34.5469L19 39.9375V34H9C7.59375 34 6.5 32.9062 6.5 31.5V9C6.5 7.67188 7.59375 6.5 9 6.5H39C40.3281 6.5 41.5 7.67188 41.5 9V31.5Z"/>
</svg>
