<svg fill="currentColor" role="img" viewBox="0 0 48 48" xmlns="http://www.w3.org/2000/svg">
<title>Cross/Remove icon</title>
<path d="M24 4C12.9516 4 4 12.9516 4 24C4 35.0484 12.9516 44 24 44C35.0484 44 44 35.0484 44 24C44 12.9516 35.0484 4 24 4ZM24 41.4194C14.4032 41.4194 6.58065 33.6774 6.58065 24C6.58065 14.4839 14.3226 6.58065 24 6.58065C33.5161 6.58065 41.4194 14.4032 41.4194 24C41.4194 33.5968 33.5968 41.4194 24 41.4194ZM31.5806 18.4355C31.9839 18.0323 31.9839 17.4677 31.5806 17.0645L30.9355 16.4194C30.5323 16.0161 29.9677 16.0161 29.5645 16.4194L24 21.9839L18.3548 16.4194C18.0323 16.0161 17.3871 16.0161 16.9839 16.4194L16.3387 17.0645C15.9355 17.4677 15.9355 18.0323 16.3387 18.4355L21.9032 24L16.3387 29.6452C15.9355 29.9677 15.9355 30.6129 16.3387 31.0161L16.9839 31.6613C17.3871 32.0645 18.0323 32.0645 18.3548 31.6613L24 26.0968L29.5645 31.6613C29.9677 32.0645 30.5323 32.0645 30.9355 31.6613L31.5806 31.0161C31.9839 30.6129 31.9839 29.9677 31.5806 29.6452L26.0161 24L31.5806 18.4355Z"/>
</svg>
