<svg fill="currentColor" role="img" viewBox="0 0 48 48" xmlns="http://www.w3.org/2000/svg">
<title>Crown icon</title>
<path d="M37.5 37H10.5C10.1875 37 10 37.25 10 37.5V38.5C10 38.8125 10.1875 39 10.5 39H37.5C37.75 39 38 38.8125 38 38.5V37.5C38 37.25 37.75 37 37.5 37ZM40.5 17C38.5625 17 37 18.625 37 20.5C37 21 37.0625 21.4375 37.25 21.875L33.75 24C33.375 24.1875 33.0625 24.25 32.6875 24.25C32 24.25 31.3125 23.875 30.9375 23.25L26.3125 15.125C27 14.5 27.5 13.5625 27.5 12.5C27.5 10.625 25.875 9 24 9C22.0625 9 20.5 10.625 20.5 12.5C20.5 13.5625 20.9375 14.5 21.625 15.125L17 23.25C16.625 23.875 15.9375 24.25 15.25 24.25C14.875 24.25 14.5625 24.1875 14.25 24L10.6875 21.875C10.875 21.4375 11 21 11 20.5C11 18.5625 9.375 17 7.5 17C5.5625 17 4 18.625 4 20.5C4 22.4375 5.5625 24 7.5 24C7.625 24 7.6875 24 7.8125 24L12 35H36L40.125 24C40.25 24 40.375 24 40.5 24C42.375 24 44 22.4375 44 20.5C44 18.625 42.375 17 40.5 17ZM24 11C24.8125 11 25.5 11.6875 25.5 12.5C25.5 13.375 24.8125 14 24 14C23.125 14 22.5 13.375 22.5 12.5C22.5 11.6875 23.125 11 24 11ZM7.5 22C6.625 22 6 21.375 6 20.5C6 19.6875 6.625 19 7.5 19C8.3125 19 9 19.6875 9 20.5C9 21.375 8.3125 22 7.5 22ZM34.5625 33H13.375L9.875 23.6875L13.1875 25.6875C13.8125 26.0625 14.5 26.25 15.25 26.25C16.6875 26.25 18 25.5 18.75 24.25L23.4375 16C23.625 16 23.8125 16 24 16C24.1875 16 24.3125 16 24.5 16L29.25 24.25C29.9375 25.5 31.25 26.25 32.6875 26.25C33.4375 26.25 34.125 26.0625 34.75 25.6875L38.0625 23.6875L34.5625 33ZM40.5 22C39.625 22 39 21.375 39 20.5C39 19.6875 39.625 19 40.5 19C41.3125 19 42 19.6875 42 20.5C42 21.375 41.3125 22 40.5 22Z"/>
</svg>
